<svg width="81" height="80" viewBox="0 0 81 80" fill="none" xmlns="http://www.w3.org/2000/svg">
<path d="M4.57559 5.04348C1.21343 9.73913 0.82549 11.1304 1.08412 21.2174L1.21343 32.1739L1.98931 21.3913C2.37725 15.4783 3.28245 10.087 3.79971 9.3913C5.09284 7.65217 25.2658 36.3478 25.2658 40C25.2658 43.6522 5.09284 72.3478 3.79971 70.6087C3.28245 69.913 2.37725 62.4348 1.98931 54.2609L1.21343 39.1304L1.08412 54.4348C0.82549 69.3913 0.954803 70.087 4.57559 74.9565L8.32569 80H40.9127H73.4998L77.2499 74.9565L81 69.913V40V10.087L77.2499 5.04348L73.4998 -1.49012e-06H40.9127H8.32569L4.57559 5.04348ZM74.5343 4.52174C75.5688 5.91304 72.2067 12 61.7323 27.4783C47.2491 48.5217 43.887 51.4783 37.6799 49.3913C33.8005 48.1739 5.35147 6.95652 6.90323 5.04348C9.10157 2.43478 14.0155 2.08696 43.1111 2.26087C63.1547 2.43478 73.6291 3.30435 74.5343 4.52174ZM78.931 11.4783C80.2241 16 79.7069 66.7826 78.4137 69.5652C77.3792 71.6522 75.1809 69.3913 66.9048 57.3913C61.215 49.2174 56.5597 41.5652 56.4304 40.3478C56.4304 37.913 75.6981 8.69565 77.2499 8.69565C77.7672 8.69565 78.543 9.91304 78.931 11.4783ZM40.9127 52.1739C44.6628 52.1739 47.1198 50.7826 50.3526 47.1304L54.62 42.087L65.2237 57.7391C72.9825 69.2174 75.5688 74.087 74.5343 75.4783C72.5946 78.087 9.23088 78.087 7.42049 75.6522C6.38598 74.2609 9.23088 68.8696 16.6018 57.913L27.2055 41.913L31.4728 47.1304C34.7057 50.7826 37.1626 52.1739 40.9127 52.1739Z" fill="url(#paint0_radial_97_17)"/>
<circle cx="1" cy="34" r="1" fill="#DB0414"/>
<circle cx="1" cy="37" r="1" fill="url(#paint1_radial_97_17)"/>
<defs>
<radialGradient id="paint0_radial_97_17" cx="0" cy="0" r="1" gradientUnits="userSpaceOnUse" gradientTransform="translate(7 8) rotate(44.361) scale(95.1118)">
<stop offset="0.114583" stop-color="#DB0414"/>
<stop offset="1" stop-color="#C60842"/>
</radialGradient>
<radialGradient id="paint1_radial_97_17" cx="0" cy="0" r="1" gradientUnits="userSpaceOnUse" gradientTransform="translate(1 37) rotate(90)">
<stop stop-color="#C60842"/>
<stop offset="1" stop-color="#C60842"/>
</radialGradient>
</defs>
</svg>
