<svg width="50" height="50" viewBox="0 0 50 50" fill="none" xmlns="http://www.w3.org/2000/svg">
<g clip-path="url(#clip0_171_81)">
<path d="M25 49.6094C24.2522 49.6094 23.4933 49.4336 22.8348 49.1016L15.9487 45.5371C14.9219 45.0293 15.4241 44.8535 15.7589 44.7559C17.1317 44.3359 17.4107 44.248 18.8728 43.5156C19.029 43.4375 19.2299 43.4668 19.3862 43.5547L24.6763 46.2988C24.8661 46.3965 25.1339 46.3965 25.3125 46.2988L45.9263 35.8887C46.1161 35.791 46.2388 35.5957 46.2388 35.4004V14.5801C46.2388 14.375 46.1161 14.1895 45.9152 14.082L25.3125 3.68164C25.1228 3.58398 24.8661 3.58398 24.6763 3.68164L4.08482 14.0918C3.88393 14.1895 3.76116 14.3848 3.76116 14.5898V35.4004C3.76116 35.5957 3.88393 35.791 4.08482 35.8789L9.73214 38.7305C12.8013 40.0684 14.6763 38.4961 14.6763 36.9043V16.3574C14.6763 16.0645 14.9442 15.8398 15.279 15.8398H17.8906C18.2143 15.8398 18.4933 16.0645 18.4933 16.3574V36.9141C18.4933 40.4883 16.2612 42.5391 12.3884 42.5391C11.1942 42.5391 10.2567 42.5391 7.64509 41.4063L2.2433 38.6816C0.904018 38.0078 0.078125 36.748 0.078125 35.3906V14.5801C0.078125 13.2324 0.904018 11.9629 2.2433 11.2891L22.8348 0.878906C24.1406 0.234375 25.8705 0.234375 27.1652 0.878906L47.779 11.2988C49.1183 11.9727 49.9442 13.2324 49.9442 14.5898V35.4004C49.9442 36.748 49.1183 38.0078 47.779 38.6914L27.1652 49.1016C26.5067 49.4336 25.7589 49.6094 25 49.6094ZM41.6406 29.0918C41.6406 25.1953 38.6272 24.1602 32.2991 23.4277C25.8929 22.6855 25.2455 22.3047 25.2455 20.9961C25.2455 19.9121 25.7924 18.4668 30.5357 18.4668C34.7656 18.4668 36.3281 19.2676 36.9754 21.7676C37.0312 22.002 37.2768 22.1777 37.5558 22.1777H40.2344C40.4018 22.1777 40.558 22.1191 40.6696 22.0117C40.7812 21.9043 40.8371 21.7578 40.8259 21.6113C40.4129 17.3047 37.1429 15.3027 30.5357 15.3027C24.654 15.3027 21.1496 17.4707 21.1496 21.1133C21.1496 25.0586 24.6429 26.1523 30.279 26.6406C37.0312 27.2168 37.5558 28.0859 37.5558 29.248C37.5558 31.2598 35.7031 32.1191 31.3616 32.1191C25.904 32.1191 24.7098 30.918 24.308 28.5449C24.2634 28.291 24.0179 28.1055 23.7165 28.1055H21.0491C20.7143 28.1055 20.4576 28.3398 20.4576 28.623C20.4576 31.6602 22.3437 35.2832 31.3728 35.2832C37.8906 35.2734 41.6406 33.0176 41.6406 29.0918V29.0918Z" fill="url(#paint0_linear_171_81)"/>
</g>
<defs>
<linearGradient id="paint0_linear_171_81" x1="25.0112" y1="0.395508" x2="25.0112" y2="49.6094" gradientUnits="userSpaceOnUse">
<stop stop-color="#7C1773"/>
<stop offset="1" stop-color="#DB0414"/>
</linearGradient>
<clipPath id="clip0_171_81">
<rect width="50" height="50" fill="white"/>
</clipPath>
</defs>
</svg>
