<svg width="400" height="400" viewBox="0 0 400 400" fill="none" xmlns="http://www.w3.org/2000/svg">
<path d="M315.734 185.2C308.45 127.833 259.334 83.3333 200 83.3333C154.067 83.3333 114.167 110.167 95.9502 152.483C60.1502 163.2 33.3335 197 33.3335 233.333C33.3335 277.617 68.1502 313.583 111.8 316.183V316.667H299.834V316.617L300 316.667C336.767 316.667 366.667 286.767 366.667 250C366.647 235.059 361.619 220.555 352.385 208.808C343.152 197.061 330.247 188.749 315.734 185.2V185.2ZM133.334 200H183.334V150H216.667V200H266.667L200 283.333L133.334 200Z" fill="url(#paint0_linear_401_18)"/>
<defs>
<linearGradient id="paint0_linear_401_18" x1="200" y1="83.3333" x2="200" y2="316.667" gradientUnits="userSpaceOnUse">
<stop stop-color="#DB0414"/>
<stop offset="1" stop-color="#AD0D62"/>
</linearGradient>
</defs>
</svg>
