<svg width="499" height="500" viewBox="0 0 499 500" fill="none" xmlns="http://www.w3.org/2000/svg">
<path d="M133.303 448.543L133.287 448.548L47.4675 471.126L133.303 448.543ZM133.303 448.543L133.318 448.538M133.303 448.543L133.318 448.538M133.318 448.538C134.444 448.163 135.181 448.162 136.386 448.162C138.278 448.162 140.198 448.917 141.791 449.713C174.898 467.491 212.449 477.191 250.001 477.191C374.774 477.191 476.125 375.759 476.127 250.888C476.531 190.671 452.703 133.69 409.903 90.8558C367.503 48.0185 310.567 24.5786 250.001 24.5786C125.228 24.5786 23.8763 126.012 23.8763 250.885C23.8763 290.485 33.9731 329.685 53.3571 363.634C54.9006 366.338 55.286 369.424 54.5115 372.53C54.511 372.531 54.5106 372.533 54.5102 372.535L31.9518 455.596L31.9512 455.598M133.318 448.538L31.9512 455.598M31.9512 455.598C30.2713 461.903 33.6461 466.105 35.307 467.768C36.9677 469.43 41.1665 472.807 47.4658 471.127L31.9512 455.598ZM31.7048 371.583L31.7587 371.385L31.6587 371.207C11.1541 334.591 0.702148 293.141 0.702148 250.885C0.702148 113.258 112.485 1.38501 250.001 1.38501C316.749 1.38501 379.475 27.5376 426.925 74.6224C473.97 121.706 499.702 184.081 499.702 250.885C499.702 388.512 387.919 500.385 250.403 500.385C210.193 500.385 170.79 490.727 135.406 472.216L135.235 472.126L135.047 472.176L53.6663 493.549C41.3525 496.73 28.6342 493.153 19.4891 484.001C10.3439 474.848 6.78103 462.133 10.3536 449.818L10.3557 449.81L31.7048 371.583ZM86.4577 345.395L86.4565 345.393C69.9811 316.84 61.1375 284.264 61.1375 250.885C61.1375 146.323 145.926 61.8689 250.001 61.8689C300.635 61.8689 348.047 81.5714 383.408 116.961C419.173 152.755 438.866 200.211 438.866 250.885C438.866 355.045 354.077 439.901 250.001 439.901C218.261 439.901 187.321 431.862 159.591 417.385C152.661 413.308 144.521 411.274 136.386 411.274C132.327 411.274 128.25 411.681 124.165 412.906C124.162 412.907 124.159 412.908 124.155 412.909L79.8816 424.374L91.3372 382.87L91.3393 382.862C94.5939 370.24 92.9708 356.802 86.4577 345.395ZM190.825 150.677L190.823 150.674C188.585 145.786 186.315 143.165 183.978 141.782C181.638 140.398 179.303 140.301 177.078 140.301H165.793C161.655 140.301 155.467 141.552 149.713 147.721C149.363 148.096 148.976 148.503 148.558 148.942C142.215 155.598 128.631 169.853 128.631 197.662C128.631 212.492 134.007 226.988 139.714 238.259C144.827 248.356 150.226 255.902 152.307 258.811C152.55 259.151 152.748 259.428 152.895 259.638C153.053 259.863 153.324 260.274 153.706 260.854C160.091 270.538 197.467 327.229 254.65 349.739L254.651 349.739C279.848 359.625 295.001 363.571 305.233 364.939C313.323 366.021 318.343 365.487 322.753 365.017C323.926 364.893 325.056 364.772 326.189 364.689C331.953 364.276 340.901 360.595 348.987 355.335C357.068 350.078 364.439 343.147 366.913 336.13L366.915 336.126C369.345 329.031 370.562 322.539 370.967 317.406C371.169 314.84 371.17 312.607 371.015 310.804C370.862 309.016 370.553 307.604 370.108 306.712C369.43 305.355 367.999 304.284 366.077 303.219C364.586 302.393 362.73 301.535 360.579 300.542C359.943 300.248 359.281 299.943 358.595 299.622C356.795 298.781 352.952 296.901 348.292 294.621C345.143 293.08 341.622 291.357 338.105 289.648C329.415 285.426 320.725 281.28 317.866 280.256C315.268 279.257 312.843 278.4 310.543 278.613C308.183 278.832 306.047 280.16 303.977 283.268C299.97 289.283 288.714 302.569 285.088 306.601C283.318 308.569 281.706 309.585 279.856 309.817C277.983 310.051 275.771 309.496 272.774 308.096C271.933 307.704 270.84 307.242 269.52 306.686C261.307 303.22 244.329 296.056 224.949 278.738L224.947 278.737C207.281 263.065 195.632 243.771 192.01 237.728C190.257 234.805 190.198 232.645 190.84 230.9C191.501 229.105 192.924 227.669 194.35 226.242L194.364 226.228L194.376 226.213C194.986 225.501 195.677 224.708 196.413 223.862C198.577 221.376 201.14 218.432 203.25 215.718C205.896 212.735 206.953 210.529 208.316 207.68C208.637 207.009 208.976 206.302 209.356 205.541C211.458 201.334 210.61 197.536 208.948 194.612C208.617 193.836 207.556 191.206 206.078 187.542C201.976 177.374 194.662 159.242 190.825 150.677Z" fill="url(#paint0_linear_805_20)" stroke="url(#paint1_linear_805_20)"/>
<defs>
<linearGradient id="paint0_linear_805_20" x1="30.2022" y1="313.742" x2="270.26" y2="470.087" gradientUnits="userSpaceOnUse">
<stop stop-color="#7C1773"/>
<stop offset="1" stop-color="#DB0414"/>
</linearGradient>
<linearGradient id="paint1_linear_805_20" x1="30.2022" y1="313.742" x2="270.26" y2="470.087" gradientUnits="userSpaceOnUse">
<stop stop-color="#7C1773"/>
<stop offset="1" stop-color="#DB0414"/>
</linearGradient>
</defs>
</svg>
