<svg width="500" height="500" viewBox="0 0 500 500" fill="none" xmlns="http://www.w3.org/2000/svg">
<path d="M250 146.75C119.031 146.75 11.5417 247.042 0 375H500C488.458 247.042 380.969 146.75 250 146.75ZM345.615 282.073C345.615 270.573 354.938 261.25 366.438 261.25C377.938 261.25 387.26 270.573 387.26 282.073C387.26 293.573 377.938 302.896 366.438 302.896C354.938 302.896 345.615 293.573 345.615 282.073ZM133.562 302.896C122.062 302.896 112.74 293.573 112.74 282.073C112.74 270.573 122.062 261.25 133.562 261.25C145.062 261.25 154.385 270.573 154.385 282.073C154.385 293.573 145.062 302.896 133.562 302.896Z" fill="url(#paint0_linear_808_25)"/>
<path d="M354.562 201.177C353.104 201.177 351.635 200.813 350.291 200.031C346.198 197.667 344.802 192.438 347.156 188.344L401.291 94.5105C403.656 90.4063 408.885 89.0001 412.979 91.3751C417.073 93.7396 418.469 98.9688 416.114 103.063L361.979 196.896C360.396 199.646 357.521 201.177 354.562 201.177Z" fill="url(#paint1_linear_808_25)"/>
<path d="M145.438 201.177C142.479 201.177 139.604 199.635 138.021 196.896L83.8959 103.063C81.5313 98.9688 82.9375 93.7396 87.0209 91.3751C91.1042 89.0001 96.3438 90.4063 98.7084 94.5105L152.844 188.344C155.208 192.448 153.802 197.677 149.708 200.031C148.365 200.813 146.896 201.177 145.438 201.177Z" fill="url(#paint2_linear_808_25)"/>
<defs>
<linearGradient id="paint0_linear_808_25" x1="30" y1="289.569" x2="142.631" y2="450.258" gradientUnits="userSpaceOnUse">
<stop stop-color="#7C1773"/>
<stop offset="1" stop-color="#DB0414"/>
</linearGradient>
<linearGradient id="paint1_linear_808_25" x1="350.287" y1="159.648" x2="391.751" y2="176.987" gradientUnits="userSpaceOnUse">
<stop stop-color="#7C1773"/>
<stop offset="1" stop-color="#DB0414"/>
</linearGradient>
<linearGradient id="paint2_linear_808_25" x1="87.0222" y1="159.648" x2="128.486" y2="176.987" gradientUnits="userSpaceOnUse">
<stop stop-color="#7C1773"/>
<stop offset="1" stop-color="#DB0414"/>
</linearGradient>
</defs>
</svg>
