<svg width="400" height="400" viewBox="0 0 400 400" fill="none" xmlns="http://www.w3.org/2000/svg">
<rect width="400" height="400" fill="url(#paint0_linear_307_18)"/>
<path d="M312.5 189.167C308.079 189.127 303.672 188.681 299.333 187.833C295.162 186.958 291.087 185.674 287.167 184L284.333 183.333H282.333C280.667 183.333 279.833 184.5 279.833 186.833V192.333C279.597 193.376 279.597 194.458 279.833 195.5C280.67 196.871 281.886 197.97 283.333 198.667C287.342 200.672 291.603 202.13 296 203C301.46 204.305 307.053 204.976 312.667 205C318.314 205.169 323.949 204.38 329.333 202.667C333.781 201.5 337.929 199.397 341.5 196.5C344.875 193.891 347.658 190.597 349.667 186.833C351.578 182.768 352.546 178.325 352.5 173.833C352.56 168.261 350.805 162.82 347.5 158.333C343.056 153.284 337.28 149.587 330.833 147.667L315 142.667C310.576 141.522 306.435 139.479 302.833 136.667C301.777 135.654 300.938 134.437 300.365 133.091C299.792 131.745 299.498 130.296 299.5 128.833C299.381 126.856 299.798 124.883 300.707 123.122C301.617 121.362 302.985 119.88 304.667 118.833C309.278 116.596 314.381 115.564 319.5 115.833C326.793 115.656 334.03 117.138 340.667 120.167C342.023 120.858 343.489 121.309 345 121.5C346.667 121.5 347.5 120.167 347.5 117.833V111.833C347.55 110.538 347.201 109.258 346.5 108.167C345.61 107.032 344.469 106.119 343.167 105.5C341.68 104.682 340.117 104.012 338.5 103.5C336.426 102.768 334.311 102.156 332.167 101.667L324.833 100C322.115 99.8035 319.385 99.8035 316.667 100C311.99 99.9193 307.327 100.537 302.833 101.833C298.626 103.061 294.674 105.037 291.167 107.667C287.913 110.041 285.236 113.117 283.333 116.667C281.289 120.451 280.256 124.699 280.333 129C280.234 135.017 282.172 140.891 285.833 145.667C290.41 151.179 296.581 155.139 303.5 157L320.167 162C324.29 162.963 328.121 164.907 331.333 167.667C333.329 169.779 334.407 172.595 334.333 175.5C334.369 177.608 333.849 179.689 332.825 181.532C331.801 183.376 330.309 184.917 328.5 186C323.553 188.488 318.022 189.583 312.5 189.167V189.167ZM215.667 108.333C215.41 106.7 214.653 105.186 213.5 104C212.253 103.081 210.706 102.664 209.167 102.833H200C198.468 102.748 196.949 103.157 195.667 104C194.452 105.14 193.683 106.677 193.5 108.333L176.833 181.667L157.833 108.333C157.53 106.68 156.714 105.163 155.5 104C155.5 104 153.333 102.833 151.167 102.833H140.333C138.5 102.833 137.667 103.833 137.667 105.667C137.828 107.2 138.164 108.709 138.667 110.167L164.667 195.833C165.005 197.357 165.689 198.783 166.667 200C167.977 200.764 169.488 201.112 171 201H180.5C182.065 201.106 183.627 200.758 185 200C186.051 198.702 186.74 197.15 187 195.5L203.667 124.167L220.333 195.667C220.472 197.301 221.18 198.834 222.333 200C223.645 200.916 225.242 201.33 226.833 201.167H236.333C237.812 201.239 239.274 200.83 240.5 200C241.754 198.867 242.578 197.337 242.833 195.667L269.667 110C269.764 109.114 269.764 108.219 269.667 107.333C269.731 106.724 269.731 106.109 269.667 105.5C269.723 105.115 269.688 104.722 269.565 104.353C269.443 103.984 269.235 103.648 268.96 103.373C268.685 103.098 268.35 102.891 267.98 102.768C267.611 102.645 267.218 102.611 266.833 102.667H256.5C254.97 102.604 253.458 103.011 252.167 103.833C251.14 105.105 250.401 106.583 250 108.167L233.333 183.333L215.667 108.333ZM96.1666 143.833C92.2425 143.318 88.2909 143.04 84.3333 143C74.5245 142.485 64.8648 145.566 57.1666 151.667C53.8884 154.474 51.2864 157.986 49.5549 161.939C47.8234 165.893 47.007 170.187 47.1666 174.5C46.9728 178.428 47.5987 182.353 49.0048 186.026C50.4108 189.699 52.566 193.039 55.3333 195.833C58.3075 198.578 61.801 200.7 65.608 202.074C69.4149 203.448 73.4583 204.046 77.4999 203.833C83.8615 204.016 90.1794 202.728 95.9612 200.068C101.743 197.408 106.833 193.449 110.833 188.5C111.808 190.734 112.921 192.905 114.167 195C115.353 196.831 116.691 198.559 118.167 200.167C118.57 200.575 119.05 200.899 119.579 201.12C120.108 201.341 120.676 201.455 121.25 201.455C121.824 201.455 122.392 201.341 122.921 201.12C123.45 200.899 123.93 200.575 124.333 200.167L131.333 195.5C131.918 195.138 132.415 194.652 132.789 194.076C133.164 193.499 133.407 192.847 133.5 192.167C133.769 191.298 133.769 190.368 133.5 189.5C132.149 186.975 130.98 184.357 130 181.667C129.107 178.412 128.714 175.04 128.833 171.667V136.5C129.231 131.561 128.625 126.592 127.049 121.895C125.474 117.197 122.962 112.867 119.667 109.167C115.431 105.605 110.508 102.953 105.203 101.376C99.8989 99.7995 94.3266 99.3309 88.8333 100C83.2074 99.9979 77.605 100.726 72.1666 102.167C67.3241 103.292 62.6267 104.97 58.1666 107.167C56.9902 107.686 55.9599 108.488 55.1666 109.5C54.7594 110.745 54.7594 112.088 55.1666 113.333V118.833C55.1666 121.167 55.1666 122.167 57.4999 122.167C58.1041 122.297 58.7292 122.297 59.3333 122.167L63.1666 120.833C66.5521 119.172 70.0629 117.778 73.6666 116.667C77.5912 115.683 81.6207 115.179 85.6666 115.167C92.1094 114.492 98.5626 116.344 103.667 120.333C107.636 125.319 109.491 131.662 108.833 138V146.167L96.1666 143.833ZM109.167 158.833V163.333C109.18 166.591 108.788 169.838 108 173C107.296 175.654 105.984 178.108 104.167 180.167C101.388 183.433 97.7508 185.858 93.6666 187.167C90.0235 188.448 86.195 189.124 82.3333 189.167C80.2192 189.324 78.0951 189.051 76.0898 188.363C74.0844 187.675 72.2395 186.588 70.6666 185.167C69.2068 183.585 68.0962 181.715 67.407 179.676C66.7179 177.637 66.4656 175.476 66.6666 173.333C66.5289 170.939 66.9548 168.546 67.91 166.346C68.8652 164.146 70.3231 162.201 72.1666 160.667C77.024 157.262 82.9222 155.669 88.8333 156.167H99.1666C102.546 156.872 105.884 157.762 109.167 158.833V158.833ZM329.333 250C289.49 266.764 246.726 275.486 203.5 275.667C145.642 275.677 88.7782 260.629 38.4999 232C34.4999 229.5 31.3333 233.667 34.8333 236.833C80.0884 277.744 138.995 300.272 200 300C248.109 300.119 295.143 285.776 335 258.833C340.667 253.667 335.5 246.833 329.333 250Z" fill="#161616"/>
<path d="M306.333 234.333C303.167 236.667 303.667 239.833 307.167 239.333C319 237.833 345.167 234.833 349.833 240.833C354.5 246.833 344.667 271.333 340.167 282.333C338.833 285.667 341.833 287 344.833 284.5C352.422 277.514 358.239 268.821 361.804 259.142C365.369 249.462 366.578 239.073 365.333 228.833C355.756 225.062 345.426 223.595 335.178 224.55C324.929 225.505 315.048 228.857 306.333 234.333V234.333Z" fill="#161616"/>
<defs>
<linearGradient id="paint0_linear_307_18" x1="200" y1="0" x2="200" y2="400" gradientUnits="userSpaceOnUse">
<stop stop-color="#DB0414"/>
<stop offset="1" stop-color="#AD0D62"/>
</linearGradient>
</defs>
</svg>
