<svg width="1312" height="1259" viewBox="0 0 1312 1259" fill="none" xmlns="http://www.w3.org/2000/svg">
<g clip-path="url(#clip0_802_18)">
<path d="M966.618 601.624H1007.52L1002.2 644.254H961.443L966.618 601.624ZM1311.94 362.473V896.527C1310.55 930.254 1290.45 960.404 1255.14 980.436L712.78 1247.46C681.537 1262.85 630.406 1262.85 599.164 1247.46L56.808 980.436C23.8916 962.033 2.43068 932.358 0 896.527V362.473C0 331.706 25.5613 293.945 56.808 278.564L599.164 11.5388C630.406 -3.84625 681.537 -3.84625 712.78 11.5388L1255.14 278.564C1287.94 297.451 1310.67 330.101 1311.94 362.473ZM1034.69 816.069L845.436 722.68C719.189 895.019 440.372 810.8 437.314 629.502C447.495 432.787 731.174 375.167 845.423 536.313L1034.68 442.92C788.034 104.56 216.088 265.354 218.657 629.502C229.62 1022.08 817.326 1137.86 1034.69 816.069ZM1079.88 571.94H1047.43L1053.28 523.764H1017.23L1011.22 571.94H970.222L976.07 523.764H940.026L934.017 571.94H899.657V601.624H930.315L924.997 644.254H889.565V673.938H921.294L914.722 726.63H951.443L957.839 673.938H998.502L991.93 726.63H1028.65L1035.05 673.938H1069.78V644.254H1038.65L1043.83 601.624H1079.88V571.94Z" fill="url(#paint0_linear_802_18)"/>
</g>
<defs>
<linearGradient id="paint0_linear_802_18" x1="78.7166" y1="787.774" x2="692.894" y2="1204.6" gradientUnits="userSpaceOnUse">
<stop stop-color="#7C1773"/>
<stop offset="1" stop-color="#DB0414"/>
</linearGradient>
<clipPath id="clip0_802_18">
<rect width="1312" height="1259" fill="white"/>
</clipPath>
</defs>
</svg>
