<svg width="2500" height="1641" viewBox="0 0 2500 1641" fill="none" xmlns="http://www.w3.org/2000/svg">
<path d="M2134.97 1581.04C2116.95 1581.05 2099.51 1574.63 2085.8 1562.93C2072.09 1551.23 2063 1535.03 2060.17 1517.23C2057.33 1499.43 2060.94 1481.2 2070.35 1465.83C2079.75 1450.45 2094.33 1438.93 2111.46 1433.35C2255.5 1386.21 2348.54 1259.97 2348.54 1111.72C2348.54 923.962 2195.81 771.208 2008.07 771.208C1995.02 771.208 1980.99 772.233 1963.91 774.45L1889.88 784.05L1879.25 710.124C1833.75 393.171 1557.65 154.147 1236.99 154.147C971.904 154.147 735.908 312.839 635.83 558.464L616.982 604.675L567.119 605.583C337.93 609.792 151.475 799.606 151.475 1028.68C151.475 1195.91 248.564 1348.41 398.809 1417.17C417.068 1425.53 431.26 1440.8 438.263 1459.62C445.265 1478.44 444.504 1499.27 436.147 1517.53C427.791 1535.79 412.523 1549.98 393.702 1556.99C374.882 1563.99 354.051 1563.23 335.791 1554.87C131.797 1461.52 0 1254.98 0 1028.69C0 734.206 226.895 487.526 515.088 457.224C647.881 179.558 926.191 2.73145 1236.96 2.73145C1608.94 2.73145 1932.29 263.522 2016.13 619.87C2283.67 624.206 2500 843.181 2500 1111.74C2500 1323.36 2362.77 1510.43 2158.56 1577.26C2150.75 1579.81 2142.79 1581.04 2134.97 1581.04Z" fill="url(#paint0_linear_803_18)"/>
<path d="M976.728 1613.8L976.689 1613.78L976.621 1613.76H976.601L976.582 1613.74L976.562 1613.72C976.562 1613.72 976.543 1613.72 976.543 1613.7H976.523L976.504 1613.68C976.523 1613.66 976.484 1613.66 976.484 1613.66L976.465 1613.64H976.445L976.426 1613.62L976.406 1613.6L976.347 1613.58L976.328 1613.56L976.308 1613.54L976.289 1613.52L976.23 1613.5C976.211 1613.52 976.211 1613.48 976.191 1613.48L976.172 1613.46L976.133 1613.44L976.113 1613.42C976.094 1613.41 976.054 1613.41 976.035 1613.41L975.957 1613.39L975.918 1613.37H975.898C975.879 1613.35 975.859 1613.35 975.83 1613.35C975.81 1613.33 975.771 1613.33 975.771 1613.33H975.752L975.713 1613.31C975.693 1613.31 975.693 1613.29 975.693 1613.29H975.674C974.48 1612.86 973.229 1612.61 971.963 1612.56H971.845H971.787L971.767 1612.54H971.562H971.582H971.426C938.701 1612.54 911.924 1585.9 911.728 1553.25V887.917H962.715C970.478 888.249 975.771 882.272 975.771 875.105C975.771 869.743 972.49 865.163 967.832 863.249L723.183 694.392C721.042 692.916 718.503 692.126 715.903 692.126C713.303 692.126 710.764 692.916 708.623 694.392L462.06 864.567C459.824 866.126 458.142 868.357 457.258 870.936C456.375 873.515 456.335 876.308 457.146 878.911C457.957 881.514 459.575 883.79 461.767 885.412C463.959 887.033 466.61 887.914 469.336 887.927H520.312L520.361 1553.42C520.615 1599.43 557.568 1636.98 604.59 1638.17C605.127 1638.23 605.635 1638.27 606.172 1638.27H971.621C974.98 1638.21 978.027 1636.86 980.283 1634.7L980.303 1634.68L980.4 1634.59C980.42 1634.57 980.439 1634.57 980.459 1634.53L980.478 1634.51L980.498 1634.49L980.517 1634.47L980.537 1634.45L980.556 1634.43L980.576 1634.41C980.615 1634.39 980.596 1634.39 980.615 1634.37L980.635 1634.35L980.654 1634.33L980.674 1634.31C982.89 1632.02 984.277 1628.91 984.287 1625.48V1625.28C984.236 1622.85 983.499 1620.48 982.162 1618.45C980.825 1616.42 978.941 1614.8 976.728 1613.8Z" fill="url(#paint1_linear_803_18)"/>
<path d="M1505.13 1613.8L1505.09 1613.78L1505.03 1613.76H1505L1504.98 1613.74L1504.96 1613.72H1504.94L1504.92 1613.7L1504.9 1613.68C1504.92 1613.66 1504.88 1613.66 1504.86 1613.66L1504.84 1613.64H1504.82C1504.8 1613.64 1504.8 1613.62 1504.8 1613.62C1504.77 1613.64 1504.77 1613.6 1504.77 1613.6L1504.73 1613.58L1504.71 1613.56H1504.69L1504.67 1613.54L1504.65 1613.52L1504.61 1613.5C1504.59 1613.52 1504.59 1613.48 1504.55 1613.48L1504.53 1613.46L1504.51 1613.44L1504.47 1613.42C1504.45 1613.41 1504.41 1613.41 1504.39 1613.41L1504.32 1613.39L1504.28 1613.37L1504.24 1613.35L1504.2 1613.33L1504.15 1613.31C1504.09 1613.31 1504.13 1613.31 1504.11 1613.29L1504.07 1613.27L1504.05 1613.25H1504.03C1502.84 1612.82 1501.59 1612.58 1500.32 1612.52H1500.17L1500.15 1612.5H1499.75C1467.03 1612.5 1440.26 1585.86 1440.07 1553.21V1036.9H1491.04C1494.06 1037.04 1497.03 1036.11 1499.43 1034.27C1501.83 1032.42 1503.5 1029.79 1504.14 1026.84C1504.78 1023.88 1504.36 1020.79 1502.95 1018.12C1501.53 1015.45 1499.21 1013.36 1496.41 1012.23L1251.75 843.386C1249.61 841.908 1247.06 841.117 1244.46 841.117C1241.86 841.117 1239.32 841.908 1237.18 843.386L990.713 1013.54C988.476 1015.1 986.794 1017.33 985.911 1019.91C985.027 1022.49 984.988 1025.28 985.798 1027.89C986.609 1030.49 988.227 1032.77 990.419 1034.39C992.611 1036.01 995.262 1036.89 997.988 1036.9H1048.74L1048.78 1553.41C1048.99 1599.43 1086.02 1637 1133.06 1638.17C1133.56 1638.23 1134.07 1638.25 1134.59 1638.25H1500.05C1503.41 1638.19 1506.45 1636.84 1508.7 1634.68L1508.72 1634.67C1508.76 1634.63 1508.84 1634.59 1508.82 1634.57C1508.84 1634.55 1508.86 1634.55 1508.88 1634.51L1508.9 1634.49L1508.92 1634.47L1508.94 1634.45C1508.94 1634.45 1508.95 1634.45 1508.95 1634.43L1508.97 1634.41C1508.99 1634.41 1508.99 1634.39 1508.99 1634.39C1509.05 1634.37 1509.03 1634.37 1509.03 1634.35L1509.05 1634.33L1509.07 1634.31L1509.09 1634.29C1511.31 1632 1512.7 1628.89 1512.7 1625.46V1625.26C1512.64 1622.83 1511.9 1620.47 1510.56 1618.44C1509.22 1616.41 1507.34 1614.81 1505.13 1613.8Z" fill="url(#paint2_linear_803_18)"/>
<path d="M2034.9 1613.8L2034.86 1613.78L2034.8 1613.76H2034.78L2034.77 1613.74L2034.75 1613.72C2034.73 1613.72 2034.73 1613.72 2034.73 1613.7H2034.71L2034.69 1613.68L2034.67 1613.66C2034.67 1613.66 2034.65 1613.66 2034.65 1613.64H2034.63L2034.61 1613.62C2034.59 1613.64 2034.59 1613.6 2034.57 1613.6C2034.59 1613.58 2034.55 1613.58 2034.53 1613.58L2034.51 1613.56H2034.49L2034.47 1613.54L2034.45 1613.52L2034.41 1613.5C2034.39 1613.52 2034.39 1613.48 2034.36 1613.48L2034.34 1613.46C2034.36 1613.44 2034.32 1613.44 2034.3 1613.44C2034.3 1613.44 2034.28 1613.44 2034.28 1613.42C2034.26 1613.41 2034.22 1613.41 2034.2 1613.41L2034.11 1613.39L2034.07 1613.37L2034.03 1613.35L2033.99 1613.33L2033.95 1613.31C2033.9 1613.31 2033.9 1613.31 2033.92 1613.29C2033.9 1613.29 2033.9 1613.27 2033.9 1613.27L2033.86 1613.25H2033.84C2032.64 1612.82 2031.39 1612.58 2030.13 1612.52H2029.94L2029.9 1612.5H2029.69H2029.55H2029.63H2029.61C1996.89 1612.5 1970.13 1585.86 1969.92 1553.21V1185.83H2021.03C2028.24 1185.66 2034.09 1180.2 2034.09 1173.03C2034.09 1167.66 2030.81 1163.08 2026.15 1161.17L1781.48 992.321C1779.34 990.846 1776.8 990.056 1774.2 990.056C1771.6 990.056 1769.06 990.846 1766.92 992.321L1520.36 1162.48C1518.12 1164.04 1516.44 1166.27 1515.56 1168.85C1514.68 1171.42 1514.64 1174.22 1515.45 1176.82C1516.26 1179.42 1517.88 1181.7 1520.07 1183.32C1522.26 1184.94 1524.91 1185.82 1527.64 1185.84H1578.49L1578.53 1553.41C1578.78 1599.43 1615.77 1637.02 1662.79 1638.17C1663.3 1638.23 1663.82 1638.25 1664.34 1638.25H2029.79C2033.14 1638.19 2036.19 1636.84 2038.45 1634.68L2038.47 1634.67C2038.51 1634.63 2038.56 1634.59 2038.56 1634.57C2038.58 1634.55 2038.6 1634.55 2038.62 1634.51L2038.64 1634.49L2038.66 1634.47L2038.68 1634.45L2038.7 1634.43L2038.72 1634.41L2038.74 1634.39C2038.8 1634.37 2038.76 1634.37 2038.78 1634.35L2038.8 1634.33L2038.82 1634.31L2038.84 1634.29C2041.05 1632 2042.43 1628.89 2042.45 1625.46V1625.26C2042.4 1622.83 2041.67 1620.47 2040.33 1618.44C2038.99 1616.41 2037.11 1614.8 2034.9 1613.8Z" fill="url(#paint3_linear_803_18)"/>
<defs>
<linearGradient id="paint0_linear_803_18" x1="150" y1="990.303" x2="978.117" y2="1844.59" gradientUnits="userSpaceOnUse">
<stop stop-color="#7C1773"/>
<stop offset="1" stop-color="#DB0414"/>
</linearGradient>
<linearGradient id="paint1_linear_803_18" x1="488.229" y1="1284.14" x2="807.002" y2="1399.94" gradientUnits="userSpaceOnUse">
<stop stop-color="#7C1773"/>
<stop offset="1" stop-color="#DB0414"/>
</linearGradient>
<linearGradient id="paint2_linear_803_18" x1="1016.87" y1="1339.89" x2="1321.05" y2="1470.99" gradientUnits="userSpaceOnUse">
<stop stop-color="#7C1773"/>
<stop offset="1" stop-color="#DB0414"/>
</linearGradient>
<linearGradient id="paint3_linear_803_18" x1="1546.52" y1="1395.64" x2="1828.13" y2="1544.92" gradientUnits="userSpaceOnUse">
<stop stop-color="#7C1773"/>
<stop offset="1" stop-color="#DB0414"/>
</linearGradient>
</defs>
</svg>
