<svg width="2608" height="1140" viewBox="0 0 2608 1140" fill="none" xmlns="http://www.w3.org/2000/svg">
<path fill-rule="evenodd" clip-rule="evenodd" d="M2428.26 471.448C2425.91 472.171 2423.56 480.115 2423.56 484.445C2423.09 513.322 2422.62 589.856 2422.62 641.835C2422.62 643.281 2424.03 646.165 2425.44 646.165C2432.49 646.888 2449.41 647.611 2463.98 647.611C2484.2 647.611 2495.95 643.281 2502.53 638.951C2519.45 625.954 2527.44 597.793 2527.44 566.747C2527.44 496.719 2495.48 470.003 2448 470.003C2444.71 469.287 2435.31 469.287 2428.26 471.448ZM2549.54 794.173C2549.54 722.699 2515.22 682.987 2453.17 682.987C2450.35 682.987 2430.61 682.264 2425.91 683.709C2424.5 684.432 2422.62 685.878 2422.62 688.046C2422.62 739.303 2422.15 820.889 2423.56 852.651C2424.5 866.37 2431.08 885.865 2439.07 891.64C2447.53 898.861 2466.81 900.3 2479.97 900.3C2517.1 900.3 2549.54 868.538 2549.54 794.173ZM2332.37 431.743C2337.07 431.743 2351.17 433.904 2387.37 433.904C2421.68 433.904 2448.94 432.465 2482.32 432.465C2523.21 432.465 2579.62 454.845 2579.62 548.698C2579.62 594.909 2558.47 631.73 2530.73 649.779C2529.32 650.502 2529.32 651.941 2530.73 652.664C2570.22 667.828 2605 705.372 2605 776.124C2605 845.436 2576.8 889.472 2535.9 916.911C2510.99 933.514 2479.97 939.29 2448.47 939.29C2424.5 939.29 2360.1 934.96 2324.38 936.405C2320.62 934.237 2327.67 908.244 2330.96 903.914C2339.42 903.191 2346 902.469 2354.93 898.139C2367.62 893.086 2369.03 887.31 2370.91 857.71C2371.85 832.44 2371.85 742.91 2371.85 679.379C2371.85 592.018 2372.33 532.817 2371.85 503.94C2371.38 481.56 2366.21 474.339 2355.87 470.003C2347.88 467.841 2334.72 464.95 2323.91 462.788C2321.55 459.175 2329.55 434.627 2332.37 431.743ZM2061.14 880.812C2072.43 894.525 2094.52 900.3 2114.26 900.3C2139.65 900.3 2165.03 893.086 2189.47 859.149C2214.38 824.496 2231.77 771.071 2231.77 685.878C2231.77 604.291 2211.56 537.87 2170.2 498.887C2146.7 476.501 2116.61 467.118 2081.83 467.118C2071.49 467.118 2061.61 467.841 2055.5 472.171C2054.09 473.617 2050.8 480.115 2050.8 483.722C2049.86 498.164 2049.86 609.344 2049.86 674.327C2049.86 741.471 2049.86 835.324 2050.8 846.152C2050.8 856.987 2054.09 873.591 2061.14 880.812ZM1954.44 431.743C1963.37 431.743 1997.68 433.904 2014.14 433.904C2043.75 433.904 2064.9 431.743 2120.84 431.743C2167.85 431.743 2207.33 451.237 2235.53 488.052C2269.85 533.54 2287.71 596.354 2287.71 672.881C2287.71 781.899 2255.28 844.714 2222.84 880.812C2190.41 917.633 2148.1 939.29 2087.94 939.29C2055.97 939.29 2000.98 937.844 1955.38 937.121H1954.91C1952.56 930.63 1958.67 905.36 1962.43 904.637C1974.65 902.469 1977.94 901.746 1984.05 898.139C1993.92 892.363 1995.81 884.419 1997.22 857.71C1998.62 807.892 1998.15 747.969 1998.15 680.102C1998.15 631.73 1998.62 537.147 1997.68 506.824C1996.28 481.56 1989.23 475.062 1975.12 470.726C1968.07 468.564 1958.67 465.673 1945.51 463.511C1943.63 458.452 1952.09 436.073 1954.44 431.743Z" fill="url(#paint0_linear_609_21)"/>
<path fill-rule="evenodd" clip-rule="evenodd" d="M1385.67 908.967C1373.92 906.798 1365.46 903.914 1355.11 896.693C1353.7 895.247 1351.35 888.033 1351.35 885.142C1350.41 859.872 1350.41 787.675 1350.41 739.303C1350.41 700.313 1346.18 666.383 1335.37 642.558C1322.68 615.119 1304.35 599.239 1280.84 599.239C1260.16 599.239 1232.43 620.902 1209.39 651.225C1208.92 651.941 1205.16 657 1205.63 649.056C1205.63 641.112 1206.57 625.232 1207.05 614.403C1207.52 604.291 1203.76 599.239 1203.76 599.239C1188.71 610.789 1146.41 625.954 1130.89 628.116C1119.61 631.73 1116.79 648.334 1128.55 654.109H1129.02C1141.7 659.885 1150.17 666.383 1156.75 672.881C1161.45 678.657 1160.98 686.6 1160.98 693.099C1161.45 747.246 1161.45 830.272 1160.04 875.759C1159.57 893.809 1156.28 900.3 1147.82 903.191L1148.75 902.468C1142.18 904.637 1137 906.798 1129.01 908.244C1126.19 912.574 1126.19 935.683 1129.01 940.735C1134.18 940.735 1161.45 938.567 1184.01 938.567C1215.04 938.567 1231.02 940.735 1239.01 940.735C1242.3 934.96 1243.24 913.297 1241.36 908.244C1232.43 907.521 1225.85 906.082 1219.74 903.191C1211.28 900.3 1208.92 893.809 1208.45 878.644C1207.52 840.377 1207.52 759.52 1207.52 704.65C1207.52 689.485 1210.34 682.264 1213.15 677.934C1223.96 663.498 1241.36 653.386 1256.87 653.386C1271.91 653.386 1281.78 660.607 1289.31 669.997C1299.64 682.986 1302.93 701.758 1304.35 715.478C1306.69 746.524 1305.76 807.892 1305.76 861.317C1305.76 890.195 1304.35 897.416 1297.3 901.023C1294.01 903.191 1285.54 906.082 1275.67 907.521C1272.38 912.574 1273.32 934.96 1275.67 940.013C1289.31 940.013 1305.29 937.844 1328.79 937.844C1357.93 937.844 1376.74 940.013 1384.26 940.013C1386.61 935.683 1387.55 914.742 1385.67 908.967ZM1515.88 633.175C1490.96 633.175 1475.45 662.776 1475.45 708.98C1475.45 755.906 1489.08 810.054 1527.63 810.054C1534.21 810.054 1546.43 805.724 1552.07 795.619C1561 782.622 1567.11 756.629 1567.11 729.197C1567.11 669.274 1547.84 633.175 1515.88 633.175ZM1512.58 952.286C1503.18 952.286 1496.6 956.616 1492.37 960.23C1472.63 979.718 1463.7 998.49 1463.7 1020.88C1463.7 1041.81 1468.87 1058.41 1480.15 1072.86C1493.78 1090.9 1512.58 1099.57 1536.56 1099.57C1584.5 1099.57 1605.66 1059.86 1605.66 1020.88C1605.66 993.437 1596.72 975.388 1578.39 965.283C1565.23 956.616 1541.26 952.286 1512.58 952.286ZM1515.88 1140C1487.2 1140 1466.52 1130.61 1448.66 1109.68C1431.26 1089.46 1423.74 1059.14 1423.74 1038.2C1423.74 1032.43 1424.68 1016.54 1433.15 1002.1C1438.31 993.437 1449.59 976.834 1476.39 948.679C1477.33 947.956 1477.8 947.234 1477.8 945.788C1477.8 944.342 1476.86 942.897 1475.92 942.181C1453.82 929.184 1447.25 908.244 1445.36 896.693V895.247C1444.9 890.918 1443.96 886.588 1448.19 882.251C1451.48 878.644 1456.18 874.314 1461.35 869.261C1469.34 862.04 1477.8 854.096 1482.97 847.598C1483.91 846.152 1483.91 844.714 1483.91 843.268C1483.91 841.822 1482.97 840.377 1482.03 839.661C1449.13 823.05 1432.67 785.506 1432.67 729.197C1432.67 692.376 1443.49 659.162 1462.76 638.228C1475.92 622.34 1508.82 602.852 1530.45 602.852H1531.86C1553.95 603.568 1566.17 610.789 1583.56 620.179C1592.96 625.232 1601.9 627.393 1614.12 627.393C1632.45 627.393 1640.44 618.733 1647.02 608.628C1647.49 610.067 1648.43 613.681 1648.9 623.063C1649.37 632.453 1647.49 646.165 1642.79 656.277C1639.03 664.214 1630.57 669.997 1622.11 669.997H1619.76C1611.29 668.551 1607.53 667.106 1607.53 667.106L1605.66 668.551C1605.19 669.997 1605.66 671.435 1606.13 673.604L1606.6 675.049C1607.53 681.548 1609.42 701.036 1609.42 706.095C1609.42 765.296 1593.9 791.282 1577.45 810.777C1561.47 828.826 1543.14 840.377 1522.46 843.268C1521.98 843.268 1520.11 843.268 1515.88 843.991C1513.52 843.991 1510.23 844.714 1509.76 844.714H1509.29C1505.53 846.152 1496.13 853.373 1496.13 865.647C1496.13 876.475 1500.36 889.472 1520.57 891.64C1524.8 892.363 1529.03 892.363 1533.74 893.086C1560.53 895.97 1593.9 899.584 1609.42 907.521C1631.04 919.795 1644.67 949.395 1644.67 984.778C1644.67 1038.2 1619.76 1088.02 1578.39 1119.06C1558.18 1132.78 1537.97 1140 1515.88 1140ZM1783.81 636.783C1773.94 636.783 1765 640.39 1758.42 647.611C1740.09 664.937 1730.69 699.597 1730.69 750.131C1730.69 844.714 1761.71 911.135 1805.9 911.135C1819.06 911.135 1829.4 905.36 1838.34 893.809C1851.97 876.475 1859.02 841.822 1859.02 793.45C1859.02 699.597 1828.46 636.783 1783.81 636.783ZM1792.27 945.788C1712.36 945.788 1683.69 855.542 1683.69 771.071C1683.69 711.871 1699.2 666.383 1730.22 633.891C1752.32 612.958 1778.64 601.407 1802.14 601.407C1863.25 601.407 1906.03 668.551 1906.03 765.296C1906.03 830.994 1889.1 882.974 1856.67 914.742C1841.16 930.623 1814.37 945.788 1792.27 945.788ZM954.623 636.783C944.75 636.783 935.822 640.39 929.238 647.611C910.907 664.937 901.505 699.597 901.505 750.131C901.505 844.714 932.528 911.135 976.714 911.135C989.877 911.135 1000.22 905.36 1009.15 893.809C1022.78 876.475 1029.83 841.822 1029.83 793.45C1029.83 699.597 999.747 636.783 954.623 636.783ZM963.085 945.788C883.174 945.788 854.499 855.542 854.499 771.071C854.499 711.871 870.011 666.383 901.034 633.891C923.129 612.958 949.451 601.407 972.954 601.407C1034.06 601.407 1076.84 668.551 1076.84 765.296C1076.84 830.994 1059.92 882.974 1027.48 914.742C1012.44 930.623 985.647 945.788 963.085 945.788ZM425.806 938.567C424.865 936.405 423.924 929.907 424.394 921.963C424.394 916.188 425.335 912.574 425.806 911.135C435.675 908.967 440.847 906.798 446.485 904.637C455.888 901.023 459.648 893.086 460.119 875.037C461.531 831.717 461.531 749.408 461.06 692.376V690.93C461.06 684.432 461.06 676.488 455.888 670.713C448.367 663.498 439.435 657 427.684 651.941C423.453 649.779 420.634 646.165 421.104 641.835C421.104 637.505 423.924 632.453 430.037 631.007C445.548 628.839 485.97 613.681 501.952 602.852C502.894 604.291 504.305 608.628 504.305 614.403L503.835 622.34C503.364 630.284 502.894 639.674 502.894 649.056C502.894 651.941 504.776 654.109 506.654 654.109C507.595 654.109 508.536 653.386 509.477 652.663C539.56 616.565 566.823 603.568 580.923 603.568C603.959 603.568 621.819 620.179 635.453 654.832C636.39 657 637.331 657.716 638.743 657.716C639.684 657.716 641.091 657 641.562 655.555C669.296 623.063 697.029 603.568 715.36 603.568C759.076 603.568 784.932 653.386 784.932 737.857C784.932 761.682 784.932 792.727 784.461 820.889C784.461 846.152 783.99 869.261 783.99 885.865C783.99 889.472 787.28 901.023 792.452 903.191C799.032 908.244 807.964 910.412 819.715 913.297H820.186C821.127 918.349 819.245 937.121 817.367 940.735C814.543 940.735 810.312 940.735 805.615 940.013C796.683 939.29 783.99 938.567 769.891 938.567C740.745 938.567 725.704 939.29 711.129 940.735C710.192 934.96 709.722 917.633 711.129 913.297C719.591 911.135 723.822 908.967 728.994 906.798C738.397 902.468 740.745 895.97 741.216 877.198C741.216 863.486 743.094 746.524 740.275 718.362C737.455 689.485 723.351 655.555 692.328 655.555C680.576 655.555 662.246 662.776 644.381 683.709C643.444 685.155 642.503 688.762 642.503 690.93V691.653C644.381 706.811 644.381 724.144 644.381 750.854V797.78C644.381 830.272 643.91 860.595 644.381 883.696C644.381 899.584 650.494 903.191 655.666 906.082C658.485 906.798 660.363 907.521 662.716 908.244C666.947 909.69 671.178 911.135 677.757 913.297C678.699 916.188 678.698 925.57 677.287 933.514C676.816 937.844 675.875 940.013 675.409 940.735C659.427 940.013 642.974 939.29 619 939.29C611.95 939.29 599.728 940.013 589.384 940.013C580.923 940.013 572.931 940.735 568.234 940.735C567.764 939.29 566.823 934.237 566.823 926.293C566.823 919.795 567.764 914.742 568.705 913.297C571.054 912.574 572.931 911.858 575.284 911.858C580.923 910.412 585.624 908.967 590.325 907.521C598.317 903.914 601.136 897.416 601.606 881.535C603.018 845.436 604.425 742.194 601.136 716.201C595.497 674.327 579.986 653.386 555.071 653.386C540.501 653.386 522.166 664.214 507.125 681.548C504.776 684.432 502.894 691.653 502.894 698.151V740.748C502.894 792.727 502.894 857.71 503.364 885.865C503.835 894.525 505.713 904.637 516.527 908.244C518.876 908.967 522.636 910.412 527.338 911.135L535.799 913.297C536.741 917.633 536.27 934.96 534.388 940.735C529.686 940.735 524.048 940.013 517.464 940.013C507.595 939.29 494.903 938.567 480.803 938.567C464.35 938.567 452.598 939.29 443.195 940.013C436.616 938.567 431.444 938.567 425.806 938.567Z" fill="url(#paint1_linear_609_21)"/>
<path fill-rule="evenodd" clip-rule="evenodd" d="M178.552 1111.85L159.28 1101.73C159.28 1101.73 161.633 950.841 126.379 940.013C102.876 898.139 130.139 -836.047 214.747 934.237C214.747 934.237 185.606 956.616 180.434 994.883C174.792 1032.43 178.552 1111.85 178.552 1111.85Z" fill="url(#paint2_linear_609_21)"/>
<path fill-rule="evenodd" clip-rule="evenodd" d="M178.552 1111.85L159.28 1101.73C159.28 1101.73 161.633 950.841 126.379 940.013C102.876 898.139 130.139 -836.047 214.747 934.237C214.747 934.237 185.606 956.616 180.434 994.883C174.792 1032.43 178.552 1111.85 178.552 1111.85Z" fill="#A6A385"/>
<path fill-rule="evenodd" clip-rule="evenodd" d="M188.895 966.006C188.895 966.006 357.646 795.619 318.161 441.126C280.087 183.384 190.303 98.9128 180.434 66.4215C169.623 43.3195 159.279 2.89111 159.279 2.89111L166.334 719.808C166.334 720.531 151.759 939.29 188.895 966.006Z" fill="url(#paint3_linear_609_21)"/>
<path fill-rule="evenodd" clip-rule="evenodd" d="M188.895 966.006C188.895 966.006 357.646 795.619 318.161 441.126C280.087 183.384 190.303 98.9128 180.434 66.4215C169.623 43.3195 159.279 2.89111 159.279 2.89111L166.334 719.808C166.334 720.531 151.759 939.29 188.895 966.006Z" fill="url(#paint4_linear_609_21)"/>
<path fill-rule="evenodd" clip-rule="evenodd" d="M149.411 975.389C149.411 975.389 -9.00025 809.331 0.402628 516.936C9.33053 224.535 121.206 80.8636 142.827 54.8705C156.931 31.7686 157.402 23.1019 158.343 0C168.212 32.4913 166.334 485.891 167.741 539.316C171.972 745.078 160.221 936.406 149.411 975.389Z" fill="url(#paint5_linear_609_21)"/>
<path fill-rule="evenodd" clip-rule="evenodd" d="M149.411 975.389C149.411 975.389 -9.00025 809.331 0.402628 516.936C9.33053 224.535 121.206 80.8636 142.827 54.8705C156.931 31.7686 157.402 23.1019 158.343 0C168.212 32.4913 166.334 485.891 167.741 539.316C171.972 745.078 160.221 936.406 149.411 975.389Z" fill="url(#paint6_linear_609_21)"/>
<defs>
<linearGradient id="paint0_linear_609_21" x1="2275.12" y1="431.743" x2="2275.12" y2="939.29" gradientUnits="userSpaceOnUse">
<stop stop-color="#7C1773"/>
<stop offset="1" stop-color="#DB0414"/>
</linearGradient>
<linearGradient id="paint1_linear_609_21" x1="1163.54" y1="599.239" x2="1163.54" y2="1140" gradientUnits="userSpaceOnUse">
<stop stop-color="#DB0414"/>
<stop offset="1" stop-color="#7C1773"/>
</linearGradient>
<linearGradient id="paint2_linear_609_21" x1="124.085" y1="747.941" x2="189.759" y2="752.184" gradientUnits="userSpaceOnUse">
<stop stop-color="#7C1773"/>
<stop offset="1" stop-color="#DB0414"/>
</linearGradient>
<linearGradient id="paint3_linear_609_21" x1="169.171" y1="605.526" x2="280.518" y2="617.94" gradientUnits="userSpaceOnUse">
<stop stop-color="#7C1773"/>
<stop offset="1" stop-color="#DB0414"/>
</linearGradient>
<linearGradient id="paint4_linear_609_21" x1="241.713" y1="2.89111" x2="241.713" y2="966.006" gradientUnits="userSpaceOnUse">
<stop stop-color="#7C1773"/>
<stop offset="1" stop-color="#DB0414"/>
</linearGradient>
<linearGradient id="paint5_linear_609_21" x1="10.1175" y1="610.315" x2="123.974" y2="623.134" gradientUnits="userSpaceOnUse">
<stop stop-color="#7C1773"/>
<stop offset="1" stop-color="#DB0414"/>
</linearGradient>
<linearGradient id="paint6_linear_609_21" x1="84.3127" y1="0" x2="84.3127" y2="975.389" gradientUnits="userSpaceOnUse">
<stop stop-color="#B30F16"/>
<stop offset="1" stop-color="#7C1773"/>
</linearGradient>
</defs>
</svg>
