<svg width="2479" height="1520" viewBox="0 0 2479 1520" fill="none" xmlns="http://www.w3.org/2000/svg">
<path fill-rule="evenodd" clip-rule="evenodd" d="M371.861 1141.09H429.946V858.914L520.658 1104.94C530.933 1134.51 545.694 1145.46 574.276 1145.46C602.858 1145.46 616.738 1134.5 627.353 1104.94L717.615 858.914V1141.09H776.15V858.914C776.15 831.527 767.207 818.35 748.44 811.227C704.205 794.795 674.713 809.041 661.313 845.736L572.403 1089.02L486.608 845.736C473.649 809.041 443.706 794.795 399.031 811.227C380.704 818.35 371.771 831.515 371.771 858.914L371.761 1141.09H371.861ZM824.501 911.513H883.036V1066.58C882.596 1075.34 885.269 1095.08 917.086 1095.6C933.61 1096.16 1043.09 1095.6 1043.97 1095.6V910.408H1102.51V1164.11C1102.51 1226.57 1039.41 1240.25 1010.01 1240.81H825.943V1193.16H1010.48C1048.02 1188.23 1043.55 1165.22 1043.55 1157.55V1138.91H919.77C862.126 1138.35 825.032 1107.12 824.601 1071.51V911.488L824.501 911.513ZM2080.07 731.782C2044.34 730.677 2016.62 735.073 1993.39 747.133C1986.7 750.449 1975.96 750.449 1975.08 760.838C1978.65 765.198 1979.08 772.333 1982.22 778.376C1987.58 789.342 1996.97 804.116 2005.45 811.78C2014.85 820.561 2024.23 829.317 2034.04 836.992C2051.47 850.133 2071.13 857.809 2088.1 870.961C2097.94 878.637 2107.76 888.499 2117.6 896.727C2122.6 901.111 2125.64 908.246 2131.9 910.973V909.315C2128.77 904.402 2127.87 897.279 2124.76 891.778C2120.28 886.313 2115.81 881.363 2111.34 875.898C2098.39 854.53 2082.29 835.887 2064.87 820.561C2050.57 808.501 2019.3 792.069 2013.49 771.805L2012.61 770.7C2022.43 769.595 2034.04 765.21 2043.44 761.919C2058.64 757.007 2072.48 758.088 2088.1 753.163C2095.26 750.952 2102.4 748.226 2109.56 745.487V740.575C2101.52 730.713 2095.71 717.561 2087.23 708.252C2064.45 684.144 2039.41 660.577 2013.49 640.854C1999.64 629.899 1981.77 622.764 1967.03 613.467C1961.65 610.176 1952.73 608.531 1949.6 603.053C1941.54 591.018 1937.08 575.114 1931.27 560.856C1918.33 530.719 1905.81 497.302 1894.64 465.519C1886.6 444.15 1881.67 422.782 1871.86 403.059C1825.83 309.908 1775.78 253.477 1698.93 198.127C1682.4 186.62 1662.74 181.67 1641.84 175.653L1608.33 173.442C1601.17 169.611 1594.03 159.196 1587.77 154.259C1562.31 134.536 1496.62 91.7986 1477.84 148.242C1465.78 183.856 1495.72 218.918 1505.88 237.008C1513.5 249.608 1523.31 263.854 1528.69 278.1C1531.69 287.409 1532.69 297.283 1535.83 307.145C1542.97 331.252 1549.68 358.11 1559.06 380.584C1564.07 392.092 1569.33 404.164 1575.59 414.566C1579.16 420.583 1585.42 423.334 1586.75 433.196C1580.49 444.163 1580.06 460.582 1576.49 474.3C1560.39 536.22 1566.65 612.927 1589.44 658.391C1596.6 672.084 1613.47 702.234 1636.36 690.714C1656.47 680.853 1651.99 649.622 1657.8 622.224C1659.15 615.653 1658.25 611.269 1660.92 606.873V607.978L1679.25 653.454C1693.1 680.3 1717.23 708.252 1737.33 726.894C1748.05 736.756 1756.54 753.752 1769.94 759.77V758.112H1769.06C1766.37 753.2 1762.35 750.989 1758.77 747.158C1750.73 737.296 1741.8 725.236 1735.54 714.281C1716.78 683.604 1700.26 649.623 1685.51 614.56C1678.35 597.576 1672.09 578.946 1666.3 561.961C1663.59 555.379 1663.59 545.505 1659.14 542.238C1652.43 554.273 1642.61 564.712 1637.68 579.498C1629.18 603.053 1628.3 632.098 1625.18 662.235C1623.38 662.788 1624.18 662.235 1623.38 663.34C1609.09 658.968 1604.17 640.866 1598.81 625.54C1585.41 586.634 1583.17 524.173 1594.78 479.237C1597.91 467.73 1611.33 431.562 1605.97 420.608C1603.27 410.194 1594.35 404.176 1589.43 395.948C1583.62 385.534 1577.38 372.393 1573.35 360.886C1562.64 330.184 1557.28 296.227 1545.65 265.537C1540.27 251.291 1530.9 236.492 1523.3 223.352C1514.81 208.553 1505.44 198.139 1498.73 180.614C1496.5 174.597 1493.38 164.723 1496.95 158.14C1497.83 153.756 1499.64 152.123 1503.19 151.017C1509 145 1525.54 152.663 1531.35 155.93C1547.88 164.158 1561.73 171.821 1575.58 183.316C1581.84 188.793 1588.54 199.208 1596.59 201.958H1605.98C1620.28 205.79 1636.35 203.064 1649.74 207.976C1673.43 217.31 1694.87 230.991 1714.1 245.801C1772.62 291.278 1820.89 355.937 1853.5 433.208C1858.86 445.808 1861.09 457.316 1866.02 470.468C1875.41 497.327 1887.03 524.713 1896.39 551.031C1905.79 576.784 1914.72 603.102 1928.12 624.471C1934.83 635.978 1961.63 641.996 1973.69 648.026C1982.63 652.938 1996.47 657.359 2004.53 663.377C2019.71 674.884 2034.91 688.037 2049.2 700.637C2056.34 707.195 2078.69 720.901 2080.02 731.831L2080.07 731.782ZM1624.41 255.626C1618.23 255.559 1612.08 256.48 1606.1 258.365V259.47H1606.98C1610.56 268.239 1616.82 274.269 1621.28 281.944L1631.57 308.25L1632.45 307.145C1638.71 301.667 1641.84 292.899 1641.84 279.758C1639.16 275.926 1638.72 272.082 1636.48 268.251C1633.8 262.774 1627.99 260.023 1624.41 255.651V255.626Z" fill="url(#paint0_linear_801_18)"/>
<path fill-rule="evenodd" clip-rule="evenodd" d="M1147.11 1141.09H1315.12C1334.77 1141.09 1353.55 1136.18 1368.73 1127.4C1394.2 1113.15 1406.27 1094 1406.27 1068.78V1016.18C1406.27 995.92 1392.42 976.725 1364.73 963.584C1350.43 957.014 1332.55 953.17 1315.13 953.17H1244.52C1220.84 953.17 1209.67 944.389 1206.54 925.231C1206.1 923.045 1206.1 920.847 1206.1 918.661V886.325C1206.1 884.667 1206.1 882.493 1206.54 880.307C1209.66 865.509 1215.92 861.665 1236.58 858.938H1408.6V811.252H1245.06C1221.38 811.252 1208.87 812.91 1197.7 817.294C1163.28 830.434 1148.09 851.263 1148.09 887.958V929.627C1148.09 961.926 1177.59 989.35 1227.63 995.92C1232.99 996.472 1238.8 996.473 1244.6 996.473H1304.93C1307.16 996.473 1309.39 996.472 1311.17 997.025C1329.5 999.211 1337.54 1003.04 1342.9 1011.25C1346.47 1015.63 1347.37 1019.47 1347.37 1024.41V1066.04C1347.37 1070.96 1344.69 1077.56 1339.33 1083.03C1333.97 1088.49 1325.46 1092.34 1314.3 1092.89C1312.06 1092.89 1310.74 1093.44 1308.49 1093.44H1147.11V1141.09ZM1769.97 1058.37C1769.97 1107.12 1800.01 1134.51 1859.8 1140.01C1865.61 1140.56 1870.97 1141.09 1876.78 1141.09H2028.7V1093.44H1875.44C1841.46 1093.44 1828.51 1083.03 1828.51 1057.83V811.252H1769.86V1058.38L1769.97 1058.37ZM1443.34 1060.54V890.697C1443.34 847.407 1468.36 821.089 1517.08 812.885C1522.44 812.332 1527.8 811.78 1532.7 811.78H1643.51C1649.31 811.78 1654.24 812.332 1660.05 812.885C1708.75 821.089 1733.32 847.394 1733.32 890.697V1060.54C1733.32 1095.6 1723.05 1114.25 1698.91 1126.86L1756.09 1190.4H1688.63L1642.16 1138.91L1595.23 1142.2H1532.68C1521.22 1142.13 1509.81 1140.29 1498.72 1136.73C1461.67 1124.11 1443.34 1100.01 1443.34 1060.54ZM1506.34 1056.73C1506.34 1058.92 1507.34 1061.09 1507.69 1063.86C1510.81 1083.57 1525.99 1094.54 1549.23 1094.54H1601.96L1553.71 1040.83H1621.17L1663.61 1087.97C1671.68 1082.48 1676.58 1074.8 1678.37 1064.94C1678.82 1062.75 1678.82 1060.03 1678.82 1057.82V895.069C1678.82 892.883 1678.82 890.709 1678.37 888.499C1675.24 869.881 1660.06 859.479 1637.27 859.479H1549.24C1523.32 859.479 1506.35 873.172 1506.35 895.069L1506.34 1056.73Z" fill="url(#paint1_linear_801_18)"/>
<defs>
<linearGradient id="paint0_linear_801_18" x1="477.369" y1="821.359" x2="1065.51" y2="1422.96" gradientUnits="userSpaceOnUse">
<stop stop-color="#7C1773"/>
<stop offset="1" stop-color="#DB0414"/>
</linearGradient>
<linearGradient id="paint1_linear_801_18" x1="1200.01" y1="1048.49" x2="1383.05" y2="1325.68" gradientUnits="userSpaceOnUse">
<stop stop-color="#7C1773"/>
<stop offset="1" stop-color="#DB0414"/>
</linearGradient>
</defs>
</svg>
