<svg width="2529" height="846" viewBox="0 0 2529 846" fill="none" xmlns="http://www.w3.org/2000/svg">
<path d="M512.292 840.833H850.057C860.789 840.833 871.323 836.953 880.62 829.576C889.849 822.276 897.561 811.659 902.98 798.792C908.327 786.079 911.155 771.554 911.163 756.751C911.163 741.991 908.328 727.49 902.955 714.709L676.122 174.178C670.702 161.314 662.99 150.699 653.762 143.401C644.424 136.005 633.905 132.13 623.21 132.144C612.514 132.13 601.995 136.005 592.657 143.401C583.427 150.698 575.714 161.313 570.292 174.178L512.292 312.475L398.895 42.0343C393.469 29.1712 385.753 18.5591 376.521 11.2637C367.181 3.86793 356.66 -0.00994791 345.963 2.83092e-05C335.266 -0.012085 324.746 3.86338 315.405 11.2567C306.174 18.555 298.46 29.1695 293.036 42.0343L10.7661 714.709C5.40785 727.417 2.57351 741.944 2.56348 756.751C2.56348 771.503 5.37819 786.011 10.7414 798.792C16.163 811.657 23.8763 822.272 33.1063 829.569C42.4472 836.969 52.9699 840.847 63.6688 840.833H275.684C359.692 840.833 421.645 790.073 464.27 691.028L567.758 444.444L623.19 312.482L789.558 708.871H567.758L512.292 840.833ZM272.229 708.738L124.266 708.689L346.062 180.198L456.728 444.444L382.633 621.062C354.323 685.323 322.164 708.738 272.229 708.738Z" fill="url(#paint0_linear_802_20)"/>
<path d="M1062.59 832.925H1161.77V518.192C1161.77 428.132 1155.15 338.071 1155.15 338.071L1161 356.537C1170.22 385.119 1189.44 442.514 1212.01 497.413L1347.54 832.911H1453.99V140.142H1354.16L1354.17 460.797C1354.44 548.879 1360.77 635.975 1360.77 635.975L1355.77 619.922C1346.94 592.053 1327.36 532.253 1304.57 475.641L1168.37 140.142H1062.59V832.925ZM1768.51 334.121V607.274C1768.51 670.612 1740.08 718.114 1699.75 718.114C1662.07 718.114 1635.62 674.57 1635.62 614.196V334.121H1543.72V644.876C1543.72 758.694 1592.65 840.84 1667.35 840.84C1712.98 840.84 1750 811.146 1768.51 763.644V832.918H1861.07V334.121H1768.51ZM2130.23 573.623L2241.98 334.121H2140.81L2079.99 465.747L2019.15 334.121H1918.66L2030.41 572.637L1910.07 832.918H2008.59L2080.64 679.52L2152.04 832.918H2249.9L2130.23 573.623H2130.23ZM2345.29 334.121H2281.15V448.925H2345.29V651.805C2345.29 767.602 2394.87 832.918 2471.57 832.918H2526.44V717.128H2484.13C2454.38 717.128 2437.18 694.363 2437.18 645.869V448.918H2526.44V334.114H2437.18V186.658H2345.29V334.114L2345.29 334.121Z" fill="url(#paint1_linear_802_20)"/>
<defs>
<linearGradient id="paint0_linear_802_20" x1="57.0795" y1="526.121" x2="472.563" y2="818.525" gradientUnits="userSpaceOnUse">
<stop stop-color="#7C1773"/>
<stop offset="1" stop-color="#DB0414"/>
</linearGradient>
<linearGradient id="paint1_linear_802_20" x1="1150.42" y1="578.579" x2="1501.47" y2="1056.22" gradientUnits="userSpaceOnUse">
<stop stop-color="#7C1773"/>
<stop offset="1" stop-color="#DB0414"/>
</linearGradient>
</defs>
</svg>
