<svg width="500" height="500" viewBox="0 0 500 500" fill="none" xmlns="http://www.w3.org/2000/svg">
<path d="M250.489 52.0833C234.291 52.1354 223.062 53.5624 209.489 55.9062C169.406 62.8854 162.104 77.5416 162.104 104.552V145.833H255.854V166.667H158.541H113.229C85.7706 166.667 61.7394 179.604 54.1248 210.615C45.5206 246.208 45.1352 268.5 54.1248 305.667C60.9477 333.385 75.979 354.167 103.448 354.167H141.281V301C141.281 270.104 169.26 239.583 201.323 239.583H276.698C302.979 239.583 328.781 220.187 328.781 193.99V104.552C328.781 79.1458 310.458 60.1458 284.844 55.8854C285.479 55.8229 266.552 52.0208 250.489 52.0833ZM198.573 93.7499C207.125 93.7499 214.198 100.802 214.198 109.396C214.198 118.073 207.125 125 198.573 125C189.854 125 182.948 118.083 182.948 109.396C182.948 100.833 189.854 93.7499 198.573 93.7499Z" fill="url(#paint0_linear_808_21)"/>
<path d="M240.396 447.917C256.594 447.864 267.823 446.437 281.396 444.094C321.479 437.114 328.781 422.458 328.781 395.448V354.167H235.031V333.333H332.354H377.667C405.125 333.333 429.156 320.396 436.771 289.385C445.375 253.792 445.76 231.5 436.771 194.333C429.937 166.615 414.906 145.833 387.437 145.833H349.604V199C349.604 229.896 321.625 260.417 289.562 260.417H214.187C187.906 260.417 162.104 279.812 162.104 306.01V395.448C162.104 420.854 180.427 439.854 206.042 444.114C205.406 444.177 224.333 447.979 240.396 447.917ZM292.323 406.25C283.771 406.25 276.698 399.198 276.698 390.604C276.698 381.927 283.771 375 292.323 375C301.042 375 307.948 381.917 307.948 390.604C307.948 399.167 301.031 406.25 292.323 406.25Z" fill="url(#paint1_linear_808_21)"/>
<defs>
<linearGradient id="paint0_linear_808_21" x1="64.4017" y1="241.101" x2="205.013" y2="326.363" gradientUnits="userSpaceOnUse">
<stop stop-color="#7C1773"/>
<stop offset="1" stop-color="#DB0414"/>
</linearGradient>
<linearGradient id="paint1_linear_808_21" x1="178.98" y1="334.852" x2="319.593" y2="420.119" gradientUnits="userSpaceOnUse">
<stop stop-color="#7C1773"/>
<stop offset="1" stop-color="#DB0414"/>
</linearGradient>
</defs>
</svg>
