<svg width="400" height="400" viewBox="0 0 400 400" fill="none" xmlns="http://www.w3.org/2000/svg">
<path d="M308.334 158.5C295.834 154.195 284.802 146.455 276.5 136.167C267.351 124.704 255.701 115.486 242.442 109.217C229.183 102.949 214.665 99.7958 200 100C180.273 98.6029 160.743 104.687 145.3 117.042C129.857 129.396 119.634 147.114 116.667 166.667C122.511 156.887 131.308 149.214 141.79 144.752C152.272 140.29 163.9 139.268 175 141.833C187.478 146.263 198.493 154.049 206.834 164.333C216.033 175.705 227.705 184.828 240.961 191.008C254.218 197.189 268.709 200.264 283.334 200C303.061 201.397 322.59 195.313 338.033 182.958C353.476 170.604 363.699 152.886 366.667 133.333C360.928 143.23 352.16 151.018 341.656 155.55C331.153 160.082 319.47 161.116 308.334 158.5ZM91.6668 241.5C104.166 245.805 115.199 253.545 123.5 263.833C132.649 275.296 144.299 284.514 157.558 290.783C170.818 297.051 185.335 300.204 200 300C219.727 301.397 239.257 295.313 254.7 282.958C270.143 270.604 280.366 252.886 283.334 233.333C277.489 243.113 268.693 250.786 258.21 255.248C247.728 259.71 236.1 260.732 225 258.167C212.522 253.737 201.507 245.951 193.167 235.667C183.943 224.324 172.266 215.221 159.015 209.043C145.765 202.865 131.285 199.773 116.667 200C96.9396 198.603 77.4099 204.687 61.9669 217.042C46.524 229.396 36.3009 247.114 33.3335 266.667C39.0719 256.77 47.8403 248.982 58.3441 244.45C68.8478 239.918 80.5303 238.884 91.6668 241.5Z" fill="url(#paint0_linear_310_18)"/>
<defs>
<linearGradient id="paint0_linear_310_18" x1="200" y1="99.8033" x2="200" y2="300.197" gradientUnits="userSpaceOnUse">
<stop stop-color="#DB0414"/>
<stop offset="1" stop-color="#AD0D62"/>
</linearGradient>
</defs>
</svg>
