<svg width="50" height="50" viewBox="0 0 50 50" fill="none" xmlns="http://www.w3.org/2000/svg">
<path d="M1.82291 9.35473C1.82291 4.18825 7.40726 0 14.296 0H35.698C42.5867 0 48.1711 4.18825 48.1711 9.35473C48.1711 12.6262 45.932 15.5055 42.5405 17.1774C45.932 18.8495 48.1711 21.7287 48.1711 25.0002C48.1711 30.1667 42.5867 34.355 35.698 34.355H35.4272C32.1978 34.355 29.2549 33.4345 27.0398 31.9242V40.5437C27.0398 45.779 21.3095 50 14.3631 50C7.49168 50 1.82291 45.8245 1.82291 40.6452C1.82291 37.3739 4.06178 34.4948 7.45302 32.8228C4.06178 31.1507 1.82291 28.2715 1.82291 25.0002C1.82291 21.7287 4.06198 18.8495 7.45345 17.1774C4.06198 15.5055 1.82291 12.6262 1.82291 9.35473ZM22.9542 18.7097H14.296C9.66369 18.7097 5.90857 21.5261 5.90857 25.0002C5.90857 28.4609 9.63474 31.2689 14.2423 31.2906C14.2602 31.2905 14.278 31.2905 14.296 31.2905H22.9542V18.7097ZM27.0398 25.0002C27.0398 28.4743 30.7949 31.2907 35.4272 31.2907H35.698C40.3303 31.2907 44.0854 28.4743 44.0854 25.0002C44.0854 21.5261 40.3303 18.7097 35.698 18.7097H35.4272C30.7949 18.7097 27.0398 21.5261 27.0398 25.0002ZM14.296 34.355C14.278 34.355 14.2602 34.3549 14.2423 34.3549C9.63474 34.3765 5.90857 37.1845 5.90857 40.6452C5.90857 44.1066 9.71386 46.9357 14.3631 46.9357C19.0874 46.9357 22.9542 44.0611 22.9542 40.5437V34.355H14.296ZM14.296 3.06424C9.66369 3.06424 5.90857 5.8806 5.90857 9.35473C5.90857 12.8289 9.66369 15.6452 14.296 15.6452H22.9542V3.06424H14.296ZM27.0398 15.6452H35.698C40.3303 15.6452 44.0854 12.8289 44.0854 9.35473C44.0854 5.8806 40.3303 3.06424 35.698 3.06424H27.0398V15.6452Z" fill="url(#paint0_linear_171_87)"/>
<defs>
<linearGradient id="paint0_linear_171_87" x1="24.997" y1="0" x2="24.997" y2="50" gradientUnits="userSpaceOnUse">
<stop stop-color="#DB0414"/>
<stop offset="1" stop-color="#7C1773"/>
</linearGradient>
</defs>
</svg>
