<svg width="400" height="400" viewBox="0 0 400 400" fill="none" xmlns="http://www.w3.org/2000/svg">
<g clip-path="url(#clip0_304_18)">
<path d="M36.3636 0C16.2727 0 0 16.2727 0 36.3636V363.636C0 383.727 16.2727 400 36.3636 400H363.636C383.727 400 400 383.727 400 363.636V36.3636C400 16.2727 383.727 0 363.636 0H36.3636ZM72.7273 108.949H145.064C180.864 108.949 205.362 133.439 205.362 169.602C205.362 205.148 179.97 229.51 143.679 229.51H104.794V288.317H72.7273V108.949ZM104.794 135.795V202.912H136.506C159.378 202.912 172.798 190.984 172.798 169.602C172.798 147.62 159.721 135.795 136.612 135.795H104.794ZM276.491 149.574C308.801 149.574 329.085 163.874 331.321 188.601H302.379C300.143 179.037 291.052 172.94 276.634 172.94C262.597 172.94 252.024 179.67 252.024 189.489C252.024 197.198 258.486 201.916 272.159 205.007L296.129 210.476C322.111 216.312 334.162 227.514 334.162 247.514C334.162 273.641 310.17 291.051 276.243 291.051C242.316 291.051 220.936 276.361 218.572 251.634H249.041C252.023 261.706 261.57 267.685 276.989 267.685C292.516 267.685 303.338 260.854 303.338 250.781C303.338 243.072 297.515 238.207 284.588 235.334L260.476 229.759C234.367 223.795 222.088 211.738 222.088 191.229C222.088 166.611 244.419 149.574 276.491 149.574Z" fill="url(#paint0_linear_304_18)"/>
</g>
<defs>
<linearGradient id="paint0_linear_304_18" x1="200" y1="0" x2="200" y2="400" gradientUnits="userSpaceOnUse">
<stop stop-color="#DB0414"/>
<stop offset="1" stop-color="#AD0D62"/>
</linearGradient>
<clipPath id="clip0_304_18">
<rect width="400" height="400" fill="white"/>
</clipPath>
</defs>
</svg>
