<svg width="400" height="400" viewBox="0 0 400 400" fill="none" xmlns="http://www.w3.org/2000/svg">
<g clip-path="url(#clip0_303_18)">
<path d="M374.486 52.8664C329.851 -0.236234 241.699 -15.9752 177.963 17.7793L66.024 77.0858C50.9023 84.9938 37.9318 95.4375 27.9417 107.749C17.9517 120.061 11.1618 133.97 8.00624 148.587C2.66618 173.209 7.35926 198.609 21.3424 220.764C11.7606 232.846 5.22543 246.418 2.13181 260.659C-1.05689 275.57 -0.63146 290.861 3.38314 305.634C7.39775 320.407 14.9207 334.365 25.5108 346.69C70.1533 399.798 158.306 415.53 222.034 381.775L333.973 322.472C349.096 314.564 362.067 304.121 372.057 291.809C382.048 279.496 388.837 265.587 391.991 250.969C397.33 226.347 392.64 200.949 378.664 178.791C388.243 166.709 394.775 153.138 397.865 138.898C401.056 123.986 400.632 108.695 396.617 93.9215C392.603 79.1481 385.079 65.19 374.488 52.8664" fill="url(#paint0_linear_303_18)"/>
<path d="M167.017 351.742C130.924 359.543 92.8105 347.799 71.5532 322.329C65.1815 314.915 60.6552 306.519 58.2398 297.631C55.8244 288.744 55.5686 279.546 57.4874 270.575C58.1372 267.63 59.0315 264.726 60.1637 261.883L62.2729 256.539L68.0083 260.042C81.257 268.133 96.0705 274.285 111.81 278.232L115.971 279.282L115.588 282.735C115.079 287.647 116.679 292.549 120.103 296.574C123.226 300.32 127.657 303.179 132.797 304.764C137.937 306.35 143.539 306.587 148.846 305.442C151.28 304.901 153.6 304.053 155.725 302.929L267.698 243.614C270.438 242.18 272.789 240.287 274.6 238.057C276.411 235.826 277.644 233.306 278.219 230.657C278.794 227.953 278.715 225.182 277.987 222.503C277.259 219.825 275.897 217.294 273.98 215.058C270.855 211.312 266.423 208.452 261.281 206.866C256.139 205.279 250.536 205.042 245.227 206.186C242.797 206.726 240.481 207.573 238.359 208.696L195.629 231.338C188.603 235.051 180.935 237.85 172.892 239.638C136.8 247.439 98.6849 235.695 77.4308 210.223C71.0587 202.81 66.532 194.414 64.1163 185.527C61.7007 176.64 61.4447 167.442 63.3634 158.471C65.2612 149.679 69.3458 141.313 75.3558 133.907C81.3658 126.502 89.169 120.221 98.2662 115.466L210.23 56.1454C217.259 52.4262 224.933 49.624 232.983 47.8364C269.075 40.0351 307.19 51.7792 328.444 77.2493C334.816 84.6627 339.342 93.0593 341.758 101.946C344.174 110.833 344.43 120.032 342.511 129.003C341.858 131.947 340.964 134.851 339.835 137.694L337.726 143.039L331.992 139.542C318.744 131.445 303.93 125.291 288.188 121.343L284.026 120.292L284.411 116.84C284.915 111.929 283.316 107.028 279.895 103.001C276.772 99.2552 272.341 96.3962 267.201 94.8104C262.06 93.2246 256.458 92.9884 251.151 94.1338C248.718 94.6746 246.398 95.5221 244.274 96.6467L132.3 155.964C129.56 157.396 127.21 159.289 125.4 161.519C123.589 163.75 122.358 166.27 121.786 168.918C121.208 171.622 121.285 174.394 122.012 177.073C122.738 179.751 124.1 182.282 126.018 184.518C129.143 188.265 133.576 191.124 138.717 192.711C143.859 194.298 149.463 194.535 154.772 193.391C157.205 192.849 159.524 192.002 161.649 190.878L204.371 168.245C211.395 164.527 219.062 161.725 227.107 159.938C263.199 152.138 301.314 163.882 322.569 189.353C328.941 196.766 333.467 205.162 335.883 214.049C338.298 222.936 338.554 232.134 336.635 241.104C334.736 249.897 330.651 258.264 324.641 265.67C318.632 273.077 310.829 279.359 301.732 284.117L189.768 343.432C182.739 347.152 175.066 349.954 167.016 351.742" fill="#161616"/>
</g>
<defs>
<linearGradient id="paint0_linear_303_18" x1="200" y1="0" x2="200" y2="399.556" gradientUnits="userSpaceOnUse">
<stop offset="0.265625" stop-color="#AD0D62"/>
<stop offset="1" stop-color="#DB0414"/>
</linearGradient>
<clipPath id="clip0_303_18">
<rect width="400" height="400" fill="white"/>
</clipPath>
</defs>
</svg>
