<svg width="288" height="288" viewBox="0 0 288 288" fill="none" xmlns="http://www.w3.org/2000/svg">
<path d="M195.696 131.696C190.816 131.696 187.264 133.664 185.008 137.6C182.752 141.536 181.632 148.544 181.632 158.608V165.632C181.632 175.632 182.688 182.624 184.816 186.592C186.944 190.56 190.528 192.544 195.6 192.544C200.848 192.544 204.816 190.208 207.504 185.52V139.2C204.896 134.208 200.96 131.696 195.696 131.696ZM256 0H32C14.336 0 0 14.32 0 32V256C0 273.68 14.336 288 32 288H256C273.664 288 288 273.68 288 256V32C288 14.32 273.664 0 256 0ZM126.304 212.8H125.888C120.16 212.8 115.024 209.296 112.928 203.968L97.648 165.072L82.448 203.936C80.352 209.28 75.216 212.8 69.488 212.8H69.072C58.832 212.8 52.096 202.128 56.512 192.896L79.824 144L57.12 96.192C52.736 86.96 59.472 76.304 69.696 76.304H69.776C75.504 76.304 80.64 79.808 82.736 85.136L97.648 123.168L112.56 85.136C114.656 79.808 119.792 76.304 125.52 76.304H125.616C135.84 76.304 142.576 86.944 138.192 96.176L115.552 143.984L138.864 192.88C143.264 202.128 136.528 212.8 126.304 212.8ZM234.24 201.12C234.24 208.448 228.288 214.4 220.96 214.4H220.8C214.336 214.4 209.216 209.696 208.016 203.584C202.704 210.88 196.048 214.672 187.92 214.672C177.296 214.672 169.184 210.608 163.584 202.48C157.984 194.352 155.136 182.416 155.008 166.672V158.992C155.008 142.368 157.824 129.968 163.44 121.776C169.056 113.584 177.248 109.488 188 109.488C195.808 109.488 202.32 112.864 207.504 119.616V82.08C207.504 74.752 213.456 68.8 220.784 68.8H220.944C228.272 68.8 234.224 74.752 234.224 82.08V201.12H234.24Z" fill="url(#paint0_linear_305_31)"/>
<defs>
<linearGradient id="paint0_linear_305_31" x1="144" y1="0" x2="144" y2="288" gradientUnits="userSpaceOnUse">
<stop stop-color="#DB0414"/>
<stop offset="1" stop-color="#AD0D62"/>
</linearGradient>
</defs>
</svg>
